<mxfile host="app.diagrams.net" modified="2021-04-15T07:24:47.301Z" agent="5.0 (Windows NT 10.0; WOW64) AppleWebKit/537.36 (KHTML, like Gecko) Chrome/74.0.3713.0 Safari/537.36" etag="aR7TezrUQdvBMup3BUsA" version="14.6.0" type="github">
  <diagram id="LS5zG2orVUpaC1MGcL4C" name="第 1 页">
    <mxGraphModel dx="1865" dy="499" grid="1" gridSize="10" guides="1" tooltips="1" connect="1" arrows="1" fold="1" page="1" pageScale="1" pageWidth="827" pageHeight="1169" math="0" shadow="0">
      <root>
        <mxCell id="0" />
        <mxCell id="1" parent="0" />
        <mxCell id="JBxnmAEpGySg6A2WOcuQ-1" style="edgeStyle=orthogonalEdgeStyle;rounded=0;orthogonalLoop=1;jettySize=auto;html=1;exitX=0.5;exitY=1;exitDx=0;exitDy=0;fontSize=7;" edge="1" parent="1">
          <mxGeometry relative="1" as="geometry">
            <mxPoint x="-325" y="285" as="sourcePoint" />
            <mxPoint x="-325" y="285" as="targetPoint" />
          </mxGeometry>
        </mxCell>
        <mxCell id="JBxnmAEpGySg6A2WOcuQ-2" value="" style="shape=curlyBracket;whiteSpace=wrap;html=1;rounded=1;fontSize=7;rotation=-90;strokeWidth=4;" vertex="1" parent="1">
          <mxGeometry x="164" y="360" width="35" height="470" as="geometry" />
        </mxCell>
        <mxCell id="JBxnmAEpGySg6A2WOcuQ-3" value="&lt;font style=&quot;font-size: 18px&quot;&gt;高位填充4个0&lt;/font&gt;" style="text;html=1;strokeColor=none;fillColor=none;align=center;verticalAlign=middle;whiteSpace=wrap;rounded=0;fontSize=7;" vertex="1" parent="1">
          <mxGeometry x="-470" y="700" width="220" height="50" as="geometry" />
        </mxCell>
        <mxCell id="JBxnmAEpGySg6A2WOcuQ-4" value="" style="shape=curlyBracket;whiteSpace=wrap;html=1;rounded=1;strokeColor=#000000;strokeWidth=4;fillColor=#F8CECC;fontSize=7;align=left;rotation=90;" vertex="1" parent="1">
          <mxGeometry x="460" y="470" width="40" height="120" as="geometry" />
        </mxCell>
        <mxCell id="JBxnmAEpGySg6A2WOcuQ-5" value="&lt;font style=&quot;font-size: 18px&quot;&gt;低位移除4位&lt;/font&gt;" style="text;html=1;strokeColor=none;fillColor=none;align=center;verticalAlign=middle;whiteSpace=wrap;rounded=0;fontSize=7;" vertex="1" parent="1">
          <mxGeometry x="420" y="491.75" width="120" height="20" as="geometry" />
        </mxCell>
        <mxCell id="JBxnmAEpGySg6A2WOcuQ-6" value="" style="shape=curlyBracket;whiteSpace=wrap;html=1;rounded=1;fontSize=7;rotation=-90;strokeWidth=4;" vertex="1" parent="1">
          <mxGeometry x="282.5" y="460" width="35" height="470" as="geometry" />
        </mxCell>
        <mxCell id="JBxnmAEpGySg6A2WOcuQ-7" value="&lt;font style=&quot;font-size: 18px&quot;&gt;向左移4位得到下面的结果&lt;/font&gt;" style="text;html=1;strokeColor=none;fillColor=none;align=center;verticalAlign=middle;whiteSpace=wrap;rounded=0;fontSize=7;" vertex="1" parent="1">
          <mxGeometry x="69.75" y="611.38" width="223.5" height="28.62" as="geometry" />
        </mxCell>
        <mxCell id="JBxnmAEpGySg6A2WOcuQ-8" value="" style="endArrow=none;dashed=1;html=1;strokeWidth=3;fontSize=7;" edge="1" parent="1">
          <mxGeometry width="50" height="50" relative="1" as="geometry">
            <mxPoint x="60" y="782.5" as="sourcePoint" />
            <mxPoint x="60" y="420" as="targetPoint" />
          </mxGeometry>
        </mxCell>
        <mxCell id="JBxnmAEpGySg6A2WOcuQ-9" value="" style="shape=curlyBracket;whiteSpace=wrap;html=1;rounded=1;strokeColor=#000000;strokeWidth=4;fillColor=#FFFFFF;fontSize=7;align=left;rotation=-90;" vertex="1" parent="1">
          <mxGeometry x="-370" y="630" width="20" height="120" as="geometry" />
        </mxCell>
        <mxCell id="JBxnmAEpGySg6A2WOcuQ-10" value="" style="shape=table;html=1;whiteSpace=wrap;startSize=0;container=1;collapsible=0;childLayout=tableLayout;aspect=fixed;strokeColor=#b85450;fillColor=#F8CECC;" vertex="1" parent="1">
          <mxGeometry x="-420" y="550" width="480" height="20" as="geometry" />
        </mxCell>
        <mxCell id="JBxnmAEpGySg6A2WOcuQ-11" value="" style="shape=partialRectangle;html=1;whiteSpace=wrap;collapsible=0;dropTarget=0;pointerEvents=0;fillColor=none;top=0;left=0;bottom=0;right=0;points=[[0,0.5],[1,0.5]];portConstraint=eastwest;" vertex="1" parent="JBxnmAEpGySg6A2WOcuQ-10">
          <mxGeometry width="480" height="20" as="geometry" />
        </mxCell>
        <mxCell id="JBxnmAEpGySg6A2WOcuQ-12" value="0" style="shape=partialRectangle;html=1;whiteSpace=wrap;connectable=0;overflow=hidden;fillColor=none;top=0;left=0;bottom=0;right=0;" vertex="1" parent="JBxnmAEpGySg6A2WOcuQ-11">
          <mxGeometry width="30" height="20" as="geometry" />
        </mxCell>
        <mxCell id="JBxnmAEpGySg6A2WOcuQ-13" value="0" style="shape=partialRectangle;html=1;whiteSpace=wrap;connectable=0;overflow=hidden;fillColor=none;top=0;left=0;bottom=0;right=0;" vertex="1" parent="JBxnmAEpGySg6A2WOcuQ-11">
          <mxGeometry x="30" width="30" height="20" as="geometry" />
        </mxCell>
        <mxCell id="JBxnmAEpGySg6A2WOcuQ-14" value="0" style="shape=partialRectangle;html=1;whiteSpace=wrap;connectable=0;overflow=hidden;fillColor=none;top=0;left=0;bottom=0;right=0;" vertex="1" parent="JBxnmAEpGySg6A2WOcuQ-11">
          <mxGeometry x="60" width="30" height="20" as="geometry" />
        </mxCell>
        <mxCell id="JBxnmAEpGySg6A2WOcuQ-15" value="0" style="shape=partialRectangle;html=1;whiteSpace=wrap;connectable=0;overflow=hidden;fillColor=none;top=0;left=0;bottom=0;right=0;" vertex="1" parent="JBxnmAEpGySg6A2WOcuQ-11">
          <mxGeometry x="90" width="30" height="20" as="geometry" />
        </mxCell>
        <mxCell id="JBxnmAEpGySg6A2WOcuQ-16" value="0" style="shape=partialRectangle;html=1;whiteSpace=wrap;connectable=0;overflow=hidden;fillColor=none;top=0;left=0;bottom=0;right=0;" vertex="1" parent="JBxnmAEpGySg6A2WOcuQ-11">
          <mxGeometry x="120" width="30" height="20" as="geometry" />
        </mxCell>
        <mxCell id="JBxnmAEpGySg6A2WOcuQ-17" value="0" style="shape=partialRectangle;html=1;whiteSpace=wrap;connectable=0;overflow=hidden;fillColor=none;top=0;left=0;bottom=0;right=0;" vertex="1" parent="JBxnmAEpGySg6A2WOcuQ-11">
          <mxGeometry x="150" width="30" height="20" as="geometry" />
        </mxCell>
        <mxCell id="JBxnmAEpGySg6A2WOcuQ-18" value="0" style="shape=partialRectangle;html=1;whiteSpace=wrap;connectable=0;overflow=hidden;fillColor=none;top=0;left=0;bottom=0;right=0;" vertex="1" parent="JBxnmAEpGySg6A2WOcuQ-11">
          <mxGeometry x="180" width="30" height="20" as="geometry" />
        </mxCell>
        <mxCell id="JBxnmAEpGySg6A2WOcuQ-19" value="0" style="shape=partialRectangle;html=1;whiteSpace=wrap;connectable=0;overflow=hidden;fillColor=none;top=0;left=0;bottom=0;right=0;" vertex="1" parent="JBxnmAEpGySg6A2WOcuQ-11">
          <mxGeometry x="210" width="30" height="20" as="geometry" />
        </mxCell>
        <mxCell id="JBxnmAEpGySg6A2WOcuQ-20" value="0" style="shape=partialRectangle;html=1;whiteSpace=wrap;connectable=0;overflow=hidden;fillColor=none;top=0;left=0;bottom=0;right=0;" vertex="1" parent="JBxnmAEpGySg6A2WOcuQ-11">
          <mxGeometry x="240" width="30" height="20" as="geometry" />
        </mxCell>
        <mxCell id="JBxnmAEpGySg6A2WOcuQ-21" value="0" style="shape=partialRectangle;html=1;whiteSpace=wrap;connectable=0;overflow=hidden;fillColor=none;top=0;left=0;bottom=0;right=0;" vertex="1" parent="JBxnmAEpGySg6A2WOcuQ-11">
          <mxGeometry x="270" width="30" height="20" as="geometry" />
        </mxCell>
        <mxCell id="JBxnmAEpGySg6A2WOcuQ-22" value="0" style="shape=partialRectangle;html=1;whiteSpace=wrap;connectable=0;overflow=hidden;fillColor=none;top=0;left=0;bottom=0;right=0;" vertex="1" parent="JBxnmAEpGySg6A2WOcuQ-11">
          <mxGeometry x="300" width="30" height="20" as="geometry" />
        </mxCell>
        <mxCell id="JBxnmAEpGySg6A2WOcuQ-23" value="0" style="shape=partialRectangle;html=1;whiteSpace=wrap;connectable=0;overflow=hidden;fillColor=none;top=0;left=0;bottom=0;right=0;" vertex="1" parent="JBxnmAEpGySg6A2WOcuQ-11">
          <mxGeometry x="330" width="30" height="20" as="geometry" />
        </mxCell>
        <mxCell id="JBxnmAEpGySg6A2WOcuQ-24" value="1" style="shape=partialRectangle;html=1;whiteSpace=wrap;connectable=0;overflow=hidden;top=0;left=0;bottom=0;right=0;fillColor=#f8cecc;strokeColor=#b85450;" vertex="1" parent="JBxnmAEpGySg6A2WOcuQ-11">
          <mxGeometry x="360" width="30" height="20" as="geometry" />
        </mxCell>
        <mxCell id="JBxnmAEpGySg6A2WOcuQ-25" value="1" style="shape=partialRectangle;html=1;whiteSpace=wrap;connectable=0;overflow=hidden;top=0;left=0;bottom=0;right=0;fillColor=#f8cecc;strokeColor=#b85450;" vertex="1" parent="JBxnmAEpGySg6A2WOcuQ-11">
          <mxGeometry x="390" width="30" height="20" as="geometry" />
        </mxCell>
        <mxCell id="JBxnmAEpGySg6A2WOcuQ-26" value="1" style="shape=partialRectangle;html=1;whiteSpace=wrap;connectable=0;overflow=hidden;top=0;left=0;bottom=0;right=0;fillColor=#f8cecc;strokeColor=#b85450;" vertex="1" parent="JBxnmAEpGySg6A2WOcuQ-11">
          <mxGeometry x="420" width="30" height="20" as="geometry" />
        </mxCell>
        <mxCell id="JBxnmAEpGySg6A2WOcuQ-27" value="1" style="shape=partialRectangle;html=1;whiteSpace=wrap;connectable=0;overflow=hidden;top=0;left=0;bottom=0;right=0;fillColor=#f8cecc;strokeColor=#b85450;" vertex="1" parent="JBxnmAEpGySg6A2WOcuQ-11">
          <mxGeometry x="450" width="30" height="20" as="geometry" />
        </mxCell>
        <mxCell id="JBxnmAEpGySg6A2WOcuQ-28" value="" style="shape=table;html=1;whiteSpace=wrap;startSize=0;container=1;collapsible=0;childLayout=tableLayout;aspect=fixed;fillColor=#60a917;strokeColor=#2D7600;fontColor=#ffffff;" vertex="1" parent="1">
          <mxGeometry x="60" y="550" width="480" height="20" as="geometry" />
        </mxCell>
        <mxCell id="JBxnmAEpGySg6A2WOcuQ-29" value="" style="shape=partialRectangle;html=1;whiteSpace=wrap;collapsible=0;dropTarget=0;pointerEvents=0;fillColor=none;top=0;left=0;bottom=0;right=0;points=[[0,0.5],[1,0.5]];portConstraint=eastwest;" vertex="1" parent="JBxnmAEpGySg6A2WOcuQ-28">
          <mxGeometry width="480" height="20" as="geometry" />
        </mxCell>
        <mxCell id="JBxnmAEpGySg6A2WOcuQ-30" value="0" style="shape=partialRectangle;html=1;whiteSpace=wrap;connectable=0;overflow=hidden;fillColor=none;top=0;left=0;bottom=0;right=0;" vertex="1" parent="JBxnmAEpGySg6A2WOcuQ-29">
          <mxGeometry width="30" height="20" as="geometry" />
        </mxCell>
        <mxCell id="JBxnmAEpGySg6A2WOcuQ-31" value="1" style="shape=partialRectangle;html=1;whiteSpace=wrap;connectable=0;overflow=hidden;fillColor=none;top=0;left=0;bottom=0;right=0;" vertex="1" parent="JBxnmAEpGySg6A2WOcuQ-29">
          <mxGeometry x="30" width="30" height="20" as="geometry" />
        </mxCell>
        <mxCell id="JBxnmAEpGySg6A2WOcuQ-32" value="1" style="shape=partialRectangle;html=1;whiteSpace=wrap;connectable=0;overflow=hidden;fillColor=none;top=0;left=0;bottom=0;right=0;" vertex="1" parent="JBxnmAEpGySg6A2WOcuQ-29">
          <mxGeometry x="60" width="30" height="20" as="geometry" />
        </mxCell>
        <mxCell id="JBxnmAEpGySg6A2WOcuQ-33" value="0" style="shape=partialRectangle;html=1;whiteSpace=wrap;connectable=0;overflow=hidden;fillColor=none;top=0;left=0;bottom=0;right=0;" vertex="1" parent="JBxnmAEpGySg6A2WOcuQ-29">
          <mxGeometry x="90" width="30" height="20" as="geometry" />
        </mxCell>
        <mxCell id="JBxnmAEpGySg6A2WOcuQ-34" value="0" style="shape=partialRectangle;html=1;whiteSpace=wrap;connectable=0;overflow=hidden;fillColor=none;top=0;left=0;bottom=0;right=0;" vertex="1" parent="JBxnmAEpGySg6A2WOcuQ-29">
          <mxGeometry x="120" width="30" height="20" as="geometry" />
        </mxCell>
        <mxCell id="JBxnmAEpGySg6A2WOcuQ-35" value="0" style="shape=partialRectangle;html=1;whiteSpace=wrap;connectable=0;overflow=hidden;fillColor=none;top=0;left=0;bottom=0;right=0;" vertex="1" parent="JBxnmAEpGySg6A2WOcuQ-29">
          <mxGeometry x="150" width="30" height="20" as="geometry" />
        </mxCell>
        <mxCell id="JBxnmAEpGySg6A2WOcuQ-36" value="1" style="shape=partialRectangle;html=1;whiteSpace=wrap;connectable=0;overflow=hidden;fillColor=none;top=0;left=0;bottom=0;right=0;" vertex="1" parent="JBxnmAEpGySg6A2WOcuQ-29">
          <mxGeometry x="180" width="30" height="20" as="geometry" />
        </mxCell>
        <mxCell id="JBxnmAEpGySg6A2WOcuQ-37" value="1" style="shape=partialRectangle;html=1;whiteSpace=wrap;connectable=0;overflow=hidden;fillColor=none;top=0;left=0;bottom=0;right=0;" vertex="1" parent="JBxnmAEpGySg6A2WOcuQ-29">
          <mxGeometry x="210" width="30" height="20" as="geometry" />
        </mxCell>
        <mxCell id="JBxnmAEpGySg6A2WOcuQ-38" value="1" style="shape=partialRectangle;html=1;whiteSpace=wrap;connectable=0;overflow=hidden;fillColor=none;top=0;left=0;bottom=0;right=0;" vertex="1" parent="JBxnmAEpGySg6A2WOcuQ-29">
          <mxGeometry x="240" width="30" height="20" as="geometry" />
        </mxCell>
        <mxCell id="JBxnmAEpGySg6A2WOcuQ-39" value="1" style="shape=partialRectangle;html=1;whiteSpace=wrap;connectable=0;overflow=hidden;fillColor=none;top=0;left=0;bottom=0;right=0;" vertex="1" parent="JBxnmAEpGySg6A2WOcuQ-29">
          <mxGeometry x="270" width="30" height="20" as="geometry" />
        </mxCell>
        <mxCell id="JBxnmAEpGySg6A2WOcuQ-40" value="1" style="shape=partialRectangle;html=1;whiteSpace=wrap;connectable=0;overflow=hidden;fillColor=none;top=0;left=0;bottom=0;right=0;" vertex="1" parent="JBxnmAEpGySg6A2WOcuQ-29">
          <mxGeometry x="300" width="30" height="20" as="geometry" />
        </mxCell>
        <mxCell id="JBxnmAEpGySg6A2WOcuQ-41" value="0" style="shape=partialRectangle;html=1;whiteSpace=wrap;connectable=0;overflow=hidden;fillColor=none;top=0;left=0;bottom=0;right=0;" vertex="1" parent="JBxnmAEpGySg6A2WOcuQ-29">
          <mxGeometry x="330" width="30" height="20" as="geometry" />
        </mxCell>
        <mxCell id="JBxnmAEpGySg6A2WOcuQ-42" value="0" style="shape=partialRectangle;html=1;whiteSpace=wrap;connectable=0;overflow=hidden;fillColor=#d5e8d4;top=0;left=0;bottom=0;right=0;strokeColor=#82b366;" vertex="1" parent="JBxnmAEpGySg6A2WOcuQ-29">
          <mxGeometry x="360" width="30" height="20" as="geometry" />
        </mxCell>
        <mxCell id="JBxnmAEpGySg6A2WOcuQ-43" value="0" style="shape=partialRectangle;html=1;whiteSpace=wrap;connectable=0;overflow=hidden;fillColor=#d5e8d4;top=0;left=0;bottom=0;right=0;strokeColor=#82b366;" vertex="1" parent="JBxnmAEpGySg6A2WOcuQ-29">
          <mxGeometry x="390" width="30" height="20" as="geometry" />
        </mxCell>
        <mxCell id="JBxnmAEpGySg6A2WOcuQ-44" value="1" style="shape=partialRectangle;html=1;whiteSpace=wrap;connectable=0;overflow=hidden;fillColor=#d5e8d4;top=0;left=0;bottom=0;right=0;strokeColor=#82b366;" vertex="1" parent="JBxnmAEpGySg6A2WOcuQ-29">
          <mxGeometry x="420" width="30" height="20" as="geometry" />
        </mxCell>
        <mxCell id="JBxnmAEpGySg6A2WOcuQ-45" value="1" style="shape=partialRectangle;html=1;whiteSpace=wrap;connectable=0;overflow=hidden;fillColor=#d5e8d4;top=0;left=0;bottom=0;right=0;strokeColor=#82b366;" vertex="1" parent="JBxnmAEpGySg6A2WOcuQ-29">
          <mxGeometry x="450" width="30" height="20" as="geometry" />
        </mxCell>
        <mxCell id="JBxnmAEpGySg6A2WOcuQ-46" value="" style="shape=table;html=1;whiteSpace=wrap;startSize=0;container=1;collapsible=0;childLayout=tableLayout;aspect=fixed;fillColor=#60a917;strokeColor=#2D7600;fontColor=#ffffff;" vertex="1" parent="1">
          <mxGeometry x="60" y="650" width="480" height="20" as="geometry" />
        </mxCell>
        <mxCell id="JBxnmAEpGySg6A2WOcuQ-47" value="" style="shape=partialRectangle;html=1;whiteSpace=wrap;collapsible=0;dropTarget=0;pointerEvents=0;fillColor=none;top=0;left=0;bottom=0;right=0;points=[[0,0.5],[1,0.5]];portConstraint=eastwest;" vertex="1" parent="JBxnmAEpGySg6A2WOcuQ-46">
          <mxGeometry width="480" height="20" as="geometry" />
        </mxCell>
        <mxCell id="JBxnmAEpGySg6A2WOcuQ-48" value="1" style="shape=partialRectangle;html=1;whiteSpace=wrap;connectable=0;overflow=hidden;fillColor=none;top=0;left=0;bottom=0;right=0;" vertex="1" parent="JBxnmAEpGySg6A2WOcuQ-47">
          <mxGeometry width="30" height="20" as="geometry" />
        </mxCell>
        <mxCell id="JBxnmAEpGySg6A2WOcuQ-49" value="1" style="shape=partialRectangle;html=1;whiteSpace=wrap;connectable=0;overflow=hidden;fillColor=none;top=0;left=0;bottom=0;right=0;" vertex="1" parent="JBxnmAEpGySg6A2WOcuQ-47">
          <mxGeometry x="30" width="30" height="20" as="geometry" />
        </mxCell>
        <mxCell id="JBxnmAEpGySg6A2WOcuQ-50" value="1" style="shape=partialRectangle;html=1;whiteSpace=wrap;connectable=0;overflow=hidden;fillColor=none;top=0;left=0;bottom=0;right=0;" vertex="1" parent="JBxnmAEpGySg6A2WOcuQ-47">
          <mxGeometry x="60" width="30" height="20" as="geometry" />
        </mxCell>
        <mxCell id="JBxnmAEpGySg6A2WOcuQ-51" value="1" style="shape=partialRectangle;html=1;whiteSpace=wrap;connectable=0;overflow=hidden;fillColor=none;top=0;left=0;bottom=0;right=0;" vertex="1" parent="JBxnmAEpGySg6A2WOcuQ-47">
          <mxGeometry x="90" width="30" height="20" as="geometry" />
        </mxCell>
        <mxCell id="JBxnmAEpGySg6A2WOcuQ-52" value="0" style="shape=partialRectangle;html=1;whiteSpace=wrap;connectable=0;overflow=hidden;fillColor=none;top=0;left=0;bottom=0;right=0;" vertex="1" parent="JBxnmAEpGySg6A2WOcuQ-47">
          <mxGeometry x="120" width="30" height="20" as="geometry" />
        </mxCell>
        <mxCell id="JBxnmAEpGySg6A2WOcuQ-53" value="1" style="shape=partialRectangle;html=1;whiteSpace=wrap;connectable=0;overflow=hidden;fillColor=none;top=0;left=0;bottom=0;right=0;" vertex="1" parent="JBxnmAEpGySg6A2WOcuQ-47">
          <mxGeometry x="150" width="30" height="20" as="geometry" />
        </mxCell>
        <mxCell id="JBxnmAEpGySg6A2WOcuQ-54" value="1" style="shape=partialRectangle;html=1;whiteSpace=wrap;connectable=0;overflow=hidden;fillColor=none;top=0;left=0;bottom=0;right=0;" vertex="1" parent="JBxnmAEpGySg6A2WOcuQ-47">
          <mxGeometry x="180" width="30" height="20" as="geometry" />
        </mxCell>
        <mxCell id="JBxnmAEpGySg6A2WOcuQ-55" value="0" style="shape=partialRectangle;html=1;whiteSpace=wrap;connectable=0;overflow=hidden;fillColor=none;top=0;left=0;bottom=0;right=0;" vertex="1" parent="JBxnmAEpGySg6A2WOcuQ-47">
          <mxGeometry x="210" width="30" height="20" as="geometry" />
        </mxCell>
        <mxCell id="JBxnmAEpGySg6A2WOcuQ-56" value="0" style="shape=partialRectangle;html=1;whiteSpace=wrap;connectable=0;overflow=hidden;fillColor=none;top=0;left=0;bottom=0;right=0;" vertex="1" parent="JBxnmAEpGySg6A2WOcuQ-47">
          <mxGeometry x="240" width="30" height="20" as="geometry" />
        </mxCell>
        <mxCell id="JBxnmAEpGySg6A2WOcuQ-57" value="0" style="shape=partialRectangle;html=1;whiteSpace=wrap;connectable=0;overflow=hidden;fillColor=none;top=0;left=0;bottom=0;right=0;" vertex="1" parent="JBxnmAEpGySg6A2WOcuQ-47">
          <mxGeometry x="270" width="30" height="20" as="geometry" />
        </mxCell>
        <mxCell id="JBxnmAEpGySg6A2WOcuQ-58" value="1" style="shape=partialRectangle;html=1;whiteSpace=wrap;connectable=0;overflow=hidden;fillColor=none;top=0;left=0;bottom=0;right=0;" vertex="1" parent="JBxnmAEpGySg6A2WOcuQ-47">
          <mxGeometry x="300" width="30" height="20" as="geometry" />
        </mxCell>
        <mxCell id="JBxnmAEpGySg6A2WOcuQ-59" value="1" style="shape=partialRectangle;html=1;whiteSpace=wrap;connectable=0;overflow=hidden;fillColor=none;top=0;left=0;bottom=0;right=0;" vertex="1" parent="JBxnmAEpGySg6A2WOcuQ-47">
          <mxGeometry x="330" width="30" height="20" as="geometry" />
        </mxCell>
        <mxCell id="JBxnmAEpGySg6A2WOcuQ-60" value="1" style="shape=partialRectangle;html=1;whiteSpace=wrap;connectable=0;overflow=hidden;fillColor=none;top=0;left=0;bottom=0;right=0;" vertex="1" parent="JBxnmAEpGySg6A2WOcuQ-47">
          <mxGeometry x="360" width="30" height="20" as="geometry" />
        </mxCell>
        <mxCell id="JBxnmAEpGySg6A2WOcuQ-61" value="1" style="shape=partialRectangle;html=1;whiteSpace=wrap;connectable=0;overflow=hidden;fillColor=none;top=0;left=0;bottom=0;right=0;" vertex="1" parent="JBxnmAEpGySg6A2WOcuQ-47">
          <mxGeometry x="390" width="30" height="20" as="geometry" />
        </mxCell>
        <mxCell id="JBxnmAEpGySg6A2WOcuQ-62" value="1" style="shape=partialRectangle;html=1;whiteSpace=wrap;connectable=0;overflow=hidden;fillColor=none;top=0;left=0;bottom=0;right=0;" vertex="1" parent="JBxnmAEpGySg6A2WOcuQ-47">
          <mxGeometry x="420" width="30" height="20" as="geometry" />
        </mxCell>
        <mxCell id="JBxnmAEpGySg6A2WOcuQ-63" value="0" style="shape=partialRectangle;html=1;whiteSpace=wrap;connectable=0;overflow=hidden;fillColor=none;top=0;left=0;bottom=0;right=0;" vertex="1" parent="JBxnmAEpGySg6A2WOcuQ-47">
          <mxGeometry x="450" width="30" height="20" as="geometry" />
        </mxCell>
        <mxCell id="JBxnmAEpGySg6A2WOcuQ-64" value="" style="shape=table;html=1;whiteSpace=wrap;startSize=0;container=1;collapsible=0;childLayout=tableLayout;aspect=fixed;fillColor=#f8cecc;strokeColor=#b85450;" vertex="1" parent="1">
          <mxGeometry x="-420" y="650" width="480" height="20" as="geometry" />
        </mxCell>
        <mxCell id="JBxnmAEpGySg6A2WOcuQ-65" value="" style="shape=partialRectangle;html=1;whiteSpace=wrap;collapsible=0;dropTarget=0;pointerEvents=0;fillColor=none;top=0;left=0;bottom=0;right=0;points=[[0,0.5],[1,0.5]];portConstraint=eastwest;" vertex="1" parent="JBxnmAEpGySg6A2WOcuQ-64">
          <mxGeometry width="480" height="20" as="geometry" />
        </mxCell>
        <mxCell id="JBxnmAEpGySg6A2WOcuQ-66" value="0" style="shape=partialRectangle;html=1;whiteSpace=wrap;connectable=0;overflow=hidden;fillColor=#e1d5e7;top=0;left=0;bottom=0;right=0;strokeColor=#9673a6;" vertex="1" parent="JBxnmAEpGySg6A2WOcuQ-65">
          <mxGeometry width="30" height="20" as="geometry" />
        </mxCell>
        <mxCell id="JBxnmAEpGySg6A2WOcuQ-67" value="0" style="shape=partialRectangle;html=1;whiteSpace=wrap;connectable=0;overflow=hidden;fillColor=#e1d5e7;top=0;left=0;bottom=0;right=0;strokeColor=#9673a6;" vertex="1" parent="JBxnmAEpGySg6A2WOcuQ-65">
          <mxGeometry x="30" width="30" height="20" as="geometry" />
        </mxCell>
        <mxCell id="JBxnmAEpGySg6A2WOcuQ-68" value="0" style="shape=partialRectangle;html=1;whiteSpace=wrap;connectable=0;overflow=hidden;fillColor=#e1d5e7;top=0;left=0;bottom=0;right=0;strokeColor=#9673a6;" vertex="1" parent="JBxnmAEpGySg6A2WOcuQ-65">
          <mxGeometry x="60" width="30" height="20" as="geometry" />
        </mxCell>
        <mxCell id="JBxnmAEpGySg6A2WOcuQ-69" value="0" style="shape=partialRectangle;html=1;whiteSpace=wrap;connectable=0;overflow=hidden;fillColor=#e1d5e7;top=0;left=0;bottom=0;right=0;strokeColor=#9673a6;" vertex="1" parent="JBxnmAEpGySg6A2WOcuQ-65">
          <mxGeometry x="90" width="30" height="20" as="geometry" />
        </mxCell>
        <mxCell id="JBxnmAEpGySg6A2WOcuQ-70" value="0" style="shape=partialRectangle;html=1;whiteSpace=wrap;connectable=0;overflow=hidden;fillColor=none;top=0;left=0;bottom=0;right=0;" vertex="1" parent="JBxnmAEpGySg6A2WOcuQ-65">
          <mxGeometry x="120" width="30" height="20" as="geometry" />
        </mxCell>
        <mxCell id="JBxnmAEpGySg6A2WOcuQ-71" value="0" style="shape=partialRectangle;html=1;whiteSpace=wrap;connectable=0;overflow=hidden;fillColor=none;top=0;left=0;bottom=0;right=0;" vertex="1" parent="JBxnmAEpGySg6A2WOcuQ-65">
          <mxGeometry x="150" width="30" height="20" as="geometry" />
        </mxCell>
        <mxCell id="JBxnmAEpGySg6A2WOcuQ-72" value="0" style="shape=partialRectangle;html=1;whiteSpace=wrap;connectable=0;overflow=hidden;fillColor=none;top=0;left=0;bottom=0;right=0;" vertex="1" parent="JBxnmAEpGySg6A2WOcuQ-65">
          <mxGeometry x="180" width="30" height="20" as="geometry" />
        </mxCell>
        <mxCell id="JBxnmAEpGySg6A2WOcuQ-73" value="0" style="shape=partialRectangle;html=1;whiteSpace=wrap;connectable=0;overflow=hidden;fillColor=none;top=0;left=0;bottom=0;right=0;" vertex="1" parent="JBxnmAEpGySg6A2WOcuQ-65">
          <mxGeometry x="210" width="30" height="20" as="geometry" />
        </mxCell>
        <mxCell id="JBxnmAEpGySg6A2WOcuQ-74" value="0" style="shape=partialRectangle;html=1;whiteSpace=wrap;connectable=0;overflow=hidden;fillColor=none;top=0;left=0;bottom=0;right=0;" vertex="1" parent="JBxnmAEpGySg6A2WOcuQ-65">
          <mxGeometry x="240" width="30" height="20" as="geometry" />
        </mxCell>
        <mxCell id="JBxnmAEpGySg6A2WOcuQ-75" value="0" style="shape=partialRectangle;html=1;whiteSpace=wrap;connectable=0;overflow=hidden;fillColor=none;top=0;left=0;bottom=0;right=0;" vertex="1" parent="JBxnmAEpGySg6A2WOcuQ-65">
          <mxGeometry x="270" width="30" height="20" as="geometry" />
        </mxCell>
        <mxCell id="JBxnmAEpGySg6A2WOcuQ-76" value="0" style="shape=partialRectangle;html=1;whiteSpace=wrap;connectable=0;overflow=hidden;fillColor=none;top=0;left=0;bottom=0;right=0;" vertex="1" parent="JBxnmAEpGySg6A2WOcuQ-65">
          <mxGeometry x="300" width="30" height="20" as="geometry" />
        </mxCell>
        <mxCell id="JBxnmAEpGySg6A2WOcuQ-77" value="0" style="shape=partialRectangle;html=1;whiteSpace=wrap;connectable=0;overflow=hidden;fillColor=none;top=0;left=0;bottom=0;right=0;" vertex="1" parent="JBxnmAEpGySg6A2WOcuQ-65">
          <mxGeometry x="330" width="30" height="20" as="geometry" />
        </mxCell>
        <mxCell id="JBxnmAEpGySg6A2WOcuQ-78" value="0" style="shape=partialRectangle;html=1;whiteSpace=wrap;connectable=0;overflow=hidden;fillColor=none;top=0;left=0;bottom=0;right=0;" vertex="1" parent="JBxnmAEpGySg6A2WOcuQ-65">
          <mxGeometry x="360" width="30" height="20" as="geometry" />
        </mxCell>
        <mxCell id="JBxnmAEpGySg6A2WOcuQ-79" value="0" style="shape=partialRectangle;html=1;whiteSpace=wrap;connectable=0;overflow=hidden;fillColor=none;top=0;left=0;bottom=0;right=0;" vertex="1" parent="JBxnmAEpGySg6A2WOcuQ-65">
          <mxGeometry x="390" width="30" height="20" as="geometry" />
        </mxCell>
        <mxCell id="JBxnmAEpGySg6A2WOcuQ-80" value="0" style="shape=partialRectangle;html=1;whiteSpace=wrap;connectable=0;overflow=hidden;fillColor=none;top=0;left=0;bottom=0;right=0;" vertex="1" parent="JBxnmAEpGySg6A2WOcuQ-65">
          <mxGeometry x="420" width="30" height="20" as="geometry" />
        </mxCell>
        <mxCell id="JBxnmAEpGySg6A2WOcuQ-81" value="0" style="shape=partialRectangle;html=1;whiteSpace=wrap;connectable=0;overflow=hidden;fillColor=none;top=0;left=0;bottom=0;right=0;" vertex="1" parent="JBxnmAEpGySg6A2WOcuQ-65">
          <mxGeometry x="450" width="30" height="20" as="geometry" />
        </mxCell>
        <mxCell id="JBxnmAEpGySg6A2WOcuQ-82" value="" style="endArrow=classic;html=1;strokeWidth=3;fontSize=7;" edge="1" parent="1">
          <mxGeometry width="50" height="50" relative="1" as="geometry">
            <mxPoint x="-580" y="567" as="sourcePoint" />
            <mxPoint x="-430" y="567" as="targetPoint" />
          </mxGeometry>
        </mxCell>
        <mxCell id="JBxnmAEpGySg6A2WOcuQ-83" value="" style="endArrow=classic;html=1;strokeWidth=3;fontSize=7;" edge="1" parent="1">
          <mxGeometry width="50" height="50" relative="1" as="geometry">
            <mxPoint x="-590" y="670" as="sourcePoint" />
            <mxPoint x="-430" y="660" as="targetPoint" />
          </mxGeometry>
        </mxCell>
        <mxCell id="JBxnmAEpGySg6A2WOcuQ-84" value="&lt;font style=&quot;font-size: 18px&quot;&gt;63038&lt;/font&gt;" style="text;html=1;strokeColor=none;fillColor=none;align=center;verticalAlign=middle;whiteSpace=wrap;rounded=0;fontSize=7;" vertex="1" parent="1">
          <mxGeometry x="-650" y="660" width="60" height="20" as="geometry" />
        </mxCell>
        <mxCell id="JBxnmAEpGySg6A2WOcuQ-85" value="&lt;font style=&quot;font-size: 18px&quot;&gt;1008611&lt;/font&gt;" style="text;html=1;align=center;verticalAlign=middle;whiteSpace=wrap;rounded=0;fontSize=7;" vertex="1" parent="1">
          <mxGeometry x="-640" y="560" width="40" height="20" as="geometry" />
        </mxCell>
        <mxCell id="JBxnmAEpGySg6A2WOcuQ-86" value="" style="shape=table;html=1;whiteSpace=wrap;startSize=0;container=1;collapsible=0;childLayout=tableLayout;aspect=fixed;strokeColor=#b85450;fillColor=#F8CECC;" vertex="1" parent="1">
          <mxGeometry x="-580" y="870" width="480" height="20" as="geometry" />
        </mxCell>
        <mxCell id="JBxnmAEpGySg6A2WOcuQ-87" value="" style="shape=partialRectangle;html=1;whiteSpace=wrap;collapsible=0;dropTarget=0;pointerEvents=0;fillColor=none;top=0;left=0;bottom=0;right=0;points=[[0,0.5],[1,0.5]];portConstraint=eastwest;" vertex="1" parent="JBxnmAEpGySg6A2WOcuQ-86">
          <mxGeometry width="480" height="20" as="geometry" />
        </mxCell>
        <mxCell id="JBxnmAEpGySg6A2WOcuQ-88" value="0" style="shape=partialRectangle;html=1;whiteSpace=wrap;connectable=0;overflow=hidden;fillColor=none;top=0;left=0;bottom=0;right=0;" vertex="1" parent="JBxnmAEpGySg6A2WOcuQ-87">
          <mxGeometry width="30" height="20" as="geometry" />
        </mxCell>
        <mxCell id="JBxnmAEpGySg6A2WOcuQ-89" value="0" style="shape=partialRectangle;html=1;whiteSpace=wrap;connectable=0;overflow=hidden;fillColor=none;top=0;left=0;bottom=0;right=0;" vertex="1" parent="JBxnmAEpGySg6A2WOcuQ-87">
          <mxGeometry x="30" width="30" height="20" as="geometry" />
        </mxCell>
        <mxCell id="JBxnmAEpGySg6A2WOcuQ-90" value="0" style="shape=partialRectangle;html=1;whiteSpace=wrap;connectable=0;overflow=hidden;fillColor=none;top=0;left=0;bottom=0;right=0;" vertex="1" parent="JBxnmAEpGySg6A2WOcuQ-87">
          <mxGeometry x="60" width="30" height="20" as="geometry" />
        </mxCell>
        <mxCell id="JBxnmAEpGySg6A2WOcuQ-91" value="0" style="shape=partialRectangle;html=1;whiteSpace=wrap;connectable=0;overflow=hidden;fillColor=none;top=0;left=0;bottom=0;right=0;" vertex="1" parent="JBxnmAEpGySg6A2WOcuQ-87">
          <mxGeometry x="90" width="30" height="20" as="geometry" />
        </mxCell>
        <mxCell id="JBxnmAEpGySg6A2WOcuQ-92" value="0" style="shape=partialRectangle;html=1;whiteSpace=wrap;connectable=0;overflow=hidden;fillColor=none;top=0;left=0;bottom=0;right=0;" vertex="1" parent="JBxnmAEpGySg6A2WOcuQ-87">
          <mxGeometry x="120" width="30" height="20" as="geometry" />
        </mxCell>
        <mxCell id="JBxnmAEpGySg6A2WOcuQ-93" value="0" style="shape=partialRectangle;html=1;whiteSpace=wrap;connectable=0;overflow=hidden;fillColor=none;top=0;left=0;bottom=0;right=0;" vertex="1" parent="JBxnmAEpGySg6A2WOcuQ-87">
          <mxGeometry x="150" width="30" height="20" as="geometry" />
        </mxCell>
        <mxCell id="JBxnmAEpGySg6A2WOcuQ-94" value="0" style="shape=partialRectangle;html=1;whiteSpace=wrap;connectable=0;overflow=hidden;fillColor=none;top=0;left=0;bottom=0;right=0;" vertex="1" parent="JBxnmAEpGySg6A2WOcuQ-87">
          <mxGeometry x="180" width="30" height="20" as="geometry" />
        </mxCell>
        <mxCell id="JBxnmAEpGySg6A2WOcuQ-95" value="0" style="shape=partialRectangle;html=1;whiteSpace=wrap;connectable=0;overflow=hidden;fillColor=none;top=0;left=0;bottom=0;right=0;" vertex="1" parent="JBxnmAEpGySg6A2WOcuQ-87">
          <mxGeometry x="210" width="30" height="20" as="geometry" />
        </mxCell>
        <mxCell id="JBxnmAEpGySg6A2WOcuQ-96" value="0" style="shape=partialRectangle;html=1;whiteSpace=wrap;connectable=0;overflow=hidden;fillColor=none;top=0;left=0;bottom=0;right=0;" vertex="1" parent="JBxnmAEpGySg6A2WOcuQ-87">
          <mxGeometry x="240" width="30" height="20" as="geometry" />
        </mxCell>
        <mxCell id="JBxnmAEpGySg6A2WOcuQ-97" value="0" style="shape=partialRectangle;html=1;whiteSpace=wrap;connectable=0;overflow=hidden;fillColor=none;top=0;left=0;bottom=0;right=0;" vertex="1" parent="JBxnmAEpGySg6A2WOcuQ-87">
          <mxGeometry x="270" width="30" height="20" as="geometry" />
        </mxCell>
        <mxCell id="JBxnmAEpGySg6A2WOcuQ-98" value="0" style="shape=partialRectangle;html=1;whiteSpace=wrap;connectable=0;overflow=hidden;fillColor=none;top=0;left=0;bottom=0;right=0;" vertex="1" parent="JBxnmAEpGySg6A2WOcuQ-87">
          <mxGeometry x="300" width="30" height="20" as="geometry" />
        </mxCell>
        <mxCell id="JBxnmAEpGySg6A2WOcuQ-99" value="0" style="shape=partialRectangle;html=1;whiteSpace=wrap;connectable=0;overflow=hidden;fillColor=none;top=0;left=0;bottom=0;right=0;" vertex="1" parent="JBxnmAEpGySg6A2WOcuQ-87">
          <mxGeometry x="330" width="30" height="20" as="geometry" />
        </mxCell>
        <mxCell id="JBxnmAEpGySg6A2WOcuQ-100" value="1" style="shape=partialRectangle;html=1;whiteSpace=wrap;connectable=0;overflow=hidden;top=0;left=0;bottom=0;right=0;fillColor=#f8cecc;strokeColor=#b85450;" vertex="1" parent="JBxnmAEpGySg6A2WOcuQ-87">
          <mxGeometry x="360" width="30" height="20" as="geometry" />
        </mxCell>
        <mxCell id="JBxnmAEpGySg6A2WOcuQ-101" value="1" style="shape=partialRectangle;html=1;whiteSpace=wrap;connectable=0;overflow=hidden;top=0;left=0;bottom=0;right=0;fillColor=#f8cecc;strokeColor=#b85450;" vertex="1" parent="JBxnmAEpGySg6A2WOcuQ-87">
          <mxGeometry x="390" width="30" height="20" as="geometry" />
        </mxCell>
        <mxCell id="JBxnmAEpGySg6A2WOcuQ-102" value="1" style="shape=partialRectangle;html=1;whiteSpace=wrap;connectable=0;overflow=hidden;top=0;left=0;bottom=0;right=0;fillColor=#f8cecc;strokeColor=#b85450;" vertex="1" parent="JBxnmAEpGySg6A2WOcuQ-87">
          <mxGeometry x="420" width="30" height="20" as="geometry" />
        </mxCell>
        <mxCell id="JBxnmAEpGySg6A2WOcuQ-103" value="1" style="shape=partialRectangle;html=1;whiteSpace=wrap;connectable=0;overflow=hidden;top=0;left=0;bottom=0;right=0;fillColor=#f8cecc;strokeColor=#b85450;" vertex="1" parent="JBxnmAEpGySg6A2WOcuQ-87">
          <mxGeometry x="450" width="30" height="20" as="geometry" />
        </mxCell>
        <mxCell id="JBxnmAEpGySg6A2WOcuQ-104" value="" style="shape=table;html=1;whiteSpace=wrap;startSize=0;container=1;collapsible=0;childLayout=tableLayout;aspect=fixed;fillColor=#60a917;strokeColor=#2D7600;fontColor=#ffffff;" vertex="1" parent="1">
          <mxGeometry x="-100" y="870" width="480" height="20" as="geometry" />
        </mxCell>
        <mxCell id="JBxnmAEpGySg6A2WOcuQ-105" value="" style="shape=partialRectangle;html=1;whiteSpace=wrap;collapsible=0;dropTarget=0;pointerEvents=0;fillColor=none;top=0;left=0;bottom=0;right=0;points=[[0,0.5],[1,0.5]];portConstraint=eastwest;" vertex="1" parent="JBxnmAEpGySg6A2WOcuQ-104">
          <mxGeometry width="480" height="20" as="geometry" />
        </mxCell>
        <mxCell id="JBxnmAEpGySg6A2WOcuQ-106" value="0" style="shape=partialRectangle;html=1;whiteSpace=wrap;connectable=0;overflow=hidden;fillColor=none;top=0;left=0;bottom=0;right=0;" vertex="1" parent="JBxnmAEpGySg6A2WOcuQ-105">
          <mxGeometry width="30" height="20" as="geometry" />
        </mxCell>
        <mxCell id="JBxnmAEpGySg6A2WOcuQ-107" value="1" style="shape=partialRectangle;html=1;whiteSpace=wrap;connectable=0;overflow=hidden;fillColor=none;top=0;left=0;bottom=0;right=0;" vertex="1" parent="JBxnmAEpGySg6A2WOcuQ-105">
          <mxGeometry x="30" width="30" height="20" as="geometry" />
        </mxCell>
        <mxCell id="JBxnmAEpGySg6A2WOcuQ-108" value="1" style="shape=partialRectangle;html=1;whiteSpace=wrap;connectable=0;overflow=hidden;fillColor=none;top=0;left=0;bottom=0;right=0;" vertex="1" parent="JBxnmAEpGySg6A2WOcuQ-105">
          <mxGeometry x="60" width="30" height="20" as="geometry" />
        </mxCell>
        <mxCell id="JBxnmAEpGySg6A2WOcuQ-109" value="0" style="shape=partialRectangle;html=1;whiteSpace=wrap;connectable=0;overflow=hidden;fillColor=none;top=0;left=0;bottom=0;right=0;" vertex="1" parent="JBxnmAEpGySg6A2WOcuQ-105">
          <mxGeometry x="90" width="30" height="20" as="geometry" />
        </mxCell>
        <mxCell id="JBxnmAEpGySg6A2WOcuQ-110" value="0" style="shape=partialRectangle;html=1;whiteSpace=wrap;connectable=0;overflow=hidden;fillColor=none;top=0;left=0;bottom=0;right=0;" vertex="1" parent="JBxnmAEpGySg6A2WOcuQ-105">
          <mxGeometry x="120" width="30" height="20" as="geometry" />
        </mxCell>
        <mxCell id="JBxnmAEpGySg6A2WOcuQ-111" value="0" style="shape=partialRectangle;html=1;whiteSpace=wrap;connectable=0;overflow=hidden;fillColor=none;top=0;left=0;bottom=0;right=0;" vertex="1" parent="JBxnmAEpGySg6A2WOcuQ-105">
          <mxGeometry x="150" width="30" height="20" as="geometry" />
        </mxCell>
        <mxCell id="JBxnmAEpGySg6A2WOcuQ-112" value="1" style="shape=partialRectangle;html=1;whiteSpace=wrap;connectable=0;overflow=hidden;fillColor=none;top=0;left=0;bottom=0;right=0;" vertex="1" parent="JBxnmAEpGySg6A2WOcuQ-105">
          <mxGeometry x="180" width="30" height="20" as="geometry" />
        </mxCell>
        <mxCell id="JBxnmAEpGySg6A2WOcuQ-113" value="1" style="shape=partialRectangle;html=1;whiteSpace=wrap;connectable=0;overflow=hidden;fillColor=none;top=0;left=0;bottom=0;right=0;" vertex="1" parent="JBxnmAEpGySg6A2WOcuQ-105">
          <mxGeometry x="210" width="30" height="20" as="geometry" />
        </mxCell>
        <mxCell id="JBxnmAEpGySg6A2WOcuQ-114" value="1" style="shape=partialRectangle;html=1;whiteSpace=wrap;connectable=0;overflow=hidden;fillColor=none;top=0;left=0;bottom=0;right=0;" vertex="1" parent="JBxnmAEpGySg6A2WOcuQ-105">
          <mxGeometry x="240" width="30" height="20" as="geometry" />
        </mxCell>
        <mxCell id="JBxnmAEpGySg6A2WOcuQ-115" value="1" style="shape=partialRectangle;html=1;whiteSpace=wrap;connectable=0;overflow=hidden;fillColor=none;top=0;left=0;bottom=0;right=0;" vertex="1" parent="JBxnmAEpGySg6A2WOcuQ-105">
          <mxGeometry x="270" width="30" height="20" as="geometry" />
        </mxCell>
        <mxCell id="JBxnmAEpGySg6A2WOcuQ-116" value="1" style="shape=partialRectangle;html=1;whiteSpace=wrap;connectable=0;overflow=hidden;fillColor=none;top=0;left=0;bottom=0;right=0;" vertex="1" parent="JBxnmAEpGySg6A2WOcuQ-105">
          <mxGeometry x="300" width="30" height="20" as="geometry" />
        </mxCell>
        <mxCell id="JBxnmAEpGySg6A2WOcuQ-117" value="0" style="shape=partialRectangle;html=1;whiteSpace=wrap;connectable=0;overflow=hidden;fillColor=none;top=0;left=0;bottom=0;right=0;" vertex="1" parent="JBxnmAEpGySg6A2WOcuQ-105">
          <mxGeometry x="330" width="30" height="20" as="geometry" />
        </mxCell>
        <mxCell id="JBxnmAEpGySg6A2WOcuQ-118" value="0" style="shape=partialRectangle;html=1;whiteSpace=wrap;connectable=0;overflow=hidden;fillColor=#60a917;top=0;left=0;bottom=0;right=0;strokeColor=#2D7600;fontColor=#ffffff;" vertex="1" parent="JBxnmAEpGySg6A2WOcuQ-105">
          <mxGeometry x="360" width="30" height="20" as="geometry" />
        </mxCell>
        <mxCell id="JBxnmAEpGySg6A2WOcuQ-119" value="0" style="shape=partialRectangle;html=1;whiteSpace=wrap;connectable=0;overflow=hidden;fillColor=#60a917;top=0;left=0;bottom=0;right=0;strokeColor=#2D7600;fontColor=#ffffff;" vertex="1" parent="JBxnmAEpGySg6A2WOcuQ-105">
          <mxGeometry x="390" width="30" height="20" as="geometry" />
        </mxCell>
        <mxCell id="JBxnmAEpGySg6A2WOcuQ-120" value="1" style="shape=partialRectangle;html=1;whiteSpace=wrap;connectable=0;overflow=hidden;fillColor=#60a917;top=0;left=0;bottom=0;right=0;strokeColor=#2D7600;fontColor=#ffffff;" vertex="1" parent="JBxnmAEpGySg6A2WOcuQ-105">
          <mxGeometry x="420" width="30" height="20" as="geometry" />
        </mxCell>
        <mxCell id="JBxnmAEpGySg6A2WOcuQ-121" value="1" style="shape=partialRectangle;html=1;whiteSpace=wrap;connectable=0;overflow=hidden;fillColor=#60a917;top=0;left=0;bottom=0;right=0;strokeColor=#2D7600;fontColor=#ffffff;" vertex="1" parent="JBxnmAEpGySg6A2WOcuQ-105">
          <mxGeometry x="450" width="30" height="20" as="geometry" />
        </mxCell>
      </root>
    </mxGraphModel>
  </diagram>
</mxfile>
